<?xml version="1.0" encoding="utf-8"?>
<!-- Generator: Adobe Illustrator 24.1.1, SVG Export Plug-In . SVG Version: 6.00 Build 0)  -->
<svg version="1.1" id="Layer_1" xmlns="http://www.w3.org/2000/svg" xmlns:xlink="http://www.w3.org/1999/xlink" x="0px" y="0px"
	 viewBox="0 0 1000 291" style="enable-background:new 0 0 1000 291;" xml:space="preserve">
<style type="text/css">
	.st0{fill:#F0B511;}
	.st1{enable-background:new    ;}
	.st2{fill:#FFFFFF;}
</style>
<rect class="st0" width="1000" height="291"/>
<g>
	<g class="st1">
		<path class="st2" d="M48.8,46h86.8v16.4H48.8V46z M83.6,56h17.3v113H83.6V56z"/>
		<path class="st2" d="M167.2,164.7c-6.5-3.8-11.6-9.1-15.2-15.9c-3.6-6.9-5.4-14.8-5.4-23.8V90c0-9,1.8-17,5.4-23.8
			c3.6-6.9,8.6-12.2,15.2-15.9c6.5-3.8,14.1-5.6,22.7-5.6c8.6,0,16.1,1.9,22.7,5.6c6.5,3.8,11.6,9.1,15.2,15.9
			c3.6,6.9,5.4,14.8,5.4,23.8v34.9c0,9-1.8,17-5.4,23.8c-3.6,6.9-8.6,12.2-15.2,15.9c-6.5,3.8-14.1,5.6-22.7,5.6
			C181.3,170.3,173.8,168.4,167.2,164.7z M203.3,149.8c3.9-2.3,6.9-5.5,9-9.7c2.1-4.2,3.2-9.1,3.2-14.6V89.5
			c0-5.5-1.1-10.4-3.2-14.6c-2.1-4.2-5.1-7.4-9-9.7c-3.9-2.3-8.3-3.4-13.4-3.4s-9.6,1.1-13.4,3.4c-3.9,2.3-6.9,5.5-9,9.7
			c-2.1,4.2-3.2,9.1-3.2,14.6v36.1c0,5.5,1.1,10.4,3.2,14.6c2.1,4.2,5.1,7.4,9,9.7c3.9,2.3,8.3,3.4,13.4,3.4
			S199.4,152.1,203.3,149.8z"/>
		<path class="st2" d="M261.1,46h15.7l60.2,95.1l-2,2.2V46H352v123h-15.8l-60-93.7l2-2.2v95.9h-17.1V46z"/>
		<path class="st2" d="M382.4,46h17.2V169h-17.2V46z M392.6,153h33.3c8.7,0,15.1-1.7,19.1-5c4-3.3,6-8,6-14v-0.3
			c0-4.2-0.7-7.8-2.2-10.7c-1.4-3-3.7-5.3-6.8-6.9c-3.1-1.6-7.1-2.4-11.9-2.4h-37.6V98.1h37.6c6.4,0,11.2-1.5,14.4-4.5
			c3.2-3,4.9-7.4,4.9-13.3c0-6.1-1.8-10.7-5.4-13.8c-3.6-3-9-4.6-16.3-4.6h-35.2V46h38.3c8,0,14.6,1.4,20,4.1
			c5.4,2.7,9.4,6.5,12,11.5c2.7,5,4,10.9,4,17.8c0,4.2-0.8,8.2-2.5,11.9c-1.6,3.7-4.1,6.9-7.5,9.5c-3.4,2.6-7.5,4.4-12.5,5.3
			c5,0.7,9.3,2.5,12.9,5.3c3.6,2.8,6.4,6.3,8.3,10.5c1.9,4.2,2.9,8.7,2.9,13.5v0.3c0,6.7-1.5,12.5-4.4,17.6
			c-2.9,5.1-7.1,9-12.6,11.8c-5.5,2.8-11.8,4.1-19.1,4.1h-39.8V153z"/>
		<path class="st2" d="M494.3,45.9h17.3V169h-17.3V45.9z M501.9,100.5h42c3.3,0,6.2-0.8,8.7-2.4c2.5-1.6,4.5-3.8,5.9-6.7
			c1.4-2.9,2.1-6.2,2.1-10c0-3.8-0.7-7.1-2.1-10c-1.4-2.9-3.3-5.1-5.8-6.7c-2.5-1.6-5.4-2.4-8.8-2.4h-42V45.9h41.3
			c7.1,0,13.4,1.5,18.7,4.4c5.4,2.9,9.6,7.1,12.5,12.5c3,5.4,4.4,11.6,4.4,18.7c0,7.1-1.5,13.3-4.5,18.7c-3,5.4-7.2,9.6-12.6,12.5
			c-5.4,2.9-11.6,4.4-18.7,4.4h-41.3V100.5z M535.4,113.2l17.2-3.9L584,169h-20.5L535.4,113.2z"/>
		<path class="st2" d="M624.6,169h-17.3V46h17.3V169z"/>
		<path class="st2" d="M655.1,46h17.3V169h-17.3V46z M666.7,152.6h27.8c9.1,0,16.1-2.4,21.1-7.1c5-4.7,7.5-11.4,7.5-19.9V89.4
			c0-8.6-2.5-15.2-7.5-19.9c-5-4.7-12-7.1-21.1-7.1h-27.8V46h27.3c9.9,0,18.3,1.7,25.3,5.2c7,3.4,12.3,8.5,16,15.1
			c3.7,6.6,5.5,14.6,5.5,23.9v34.9c0,9.3-1.8,17.3-5.5,23.9c-3.7,6.6-9,11.6-16,15.1c-7,3.4-15.5,5.2-25.3,5.2h-27.3V152.6z"/>
		<path class="st2" d="M852.9,102.7v21.5c0,9.1-1.8,17.2-5.3,24.2c-3.6,7-8.6,12.4-15.1,16.2c-6.5,3.8-14.1,5.7-22.6,5.7
			c-8.7,0-16.3-1.8-22.9-5.4c-6.6-3.6-11.7-8.6-15.3-15.2c-3.6-6.5-5.4-14.1-5.4-22.8V90.6c0-9.1,1.8-17.2,5.3-24.1
			c3.6-6.9,8.6-12.3,15.1-16.1s14.1-5.7,22.6-5.7c7.1,0,13.6,1.5,19.5,4.5c6,3,10.9,7.3,14.9,12.8c4,5.5,6.7,11.9,8.1,19.2h-18.7
			c-1-4.1-2.7-7.7-5.2-10.6c-2.4-3-5.3-5.2-8.5-6.8c-3.3-1.6-6.7-2.3-10.2-2.3c-5.1,0-9.5,1.2-13.4,3.6c-3.8,2.4-6.8,5.8-8.9,10.2
			c-2.1,4.4-3.1,9.5-3.1,15.3V127c0,5.3,1.1,9.9,3.2,13.9c2.1,4,5.2,7.1,9.1,9.3c3.9,2.2,8.4,3.3,13.6,3.3c5.1,0,9.5-1.1,13.4-3.4
			c3.8-2.3,6.8-5.6,8.9-9.9c2.1-4.3,3.1-9.5,3.1-15.5v-5.3h-25v-16.5H852.9z"/>
		<path class="st2" d="M880.9,46h17.3V169h-17.3V46z M889.2,46h70.7v16.4h-70.7V46z M889.2,99.7h61.4v16.4h-61.4V99.7z M889.2,152.6
			h70.7V169h-70.7V152.6z"/>
	</g>
</g>
<g>
	<g class="st1">
		<path class="st2" d="M92.8,251.7c-2.6-0.6-5-1.4-7.3-2.5c-2.3-1.1-4.4-2.5-6.4-4.2l5.3-6.5c2.3,2,4.8,3.5,7.6,4.5
			c2.8,1,5.8,1.5,9,1.5c4.4,0,7.8-0.8,10.2-2.4c2.4-1.6,3.6-3.9,3.6-6.9v0c0-2.1-0.5-3.8-1.6-5c-1.1-1.2-2.5-2.2-4.3-2.8
			c-1.7-0.6-4-1.1-6.7-1.6c-0.1,0-0.2,0-0.3,0c-0.1,0-0.2,0-0.3,0l-0.6-0.1c-4.1-0.7-7.4-1.5-9.9-2.4c-2.5-0.9-4.7-2.5-6.5-4.8
			c-1.8-2.3-2.7-5.6-2.7-9.9v0c0-3.8,0.8-7,2.5-9.6c1.7-2.7,4.1-4.7,7.4-6.1c3.2-1.4,7.1-2.1,11.6-2.1c2.2,0,4.3,0.2,6.4,0.7
			c2.1,0.5,4.2,1.2,6.2,2.1c2,0.9,4,2.1,6,3.5l-4.8,6.8c-2.3-1.7-4.6-3-6.9-3.8c-2.3-0.8-4.6-1.3-6.9-1.3c-4.1,0-7.4,0.8-9.6,2.5
			c-2.3,1.7-3.4,4-3.4,7v0c0,2.1,0.6,3.7,1.8,4.9c1.2,1.2,2.7,2.1,4.4,2.6c1.8,0.6,4.2,1.2,7.4,1.8c0.1,0,0.2,0,0.3,0.1
			c0.1,0,0.2,0,0.3,0.1c0.1,0,0.3,0.1,0.5,0.1c0.2,0,0.3,0.1,0.5,0.1c3.7,0.8,6.7,1.6,9.2,2.7c2.5,1,4.5,2.7,6.2,5
			c1.7,2.3,2.5,5.4,2.5,9.4v0.1c0,3.7-0.9,6.9-2.6,9.5s-4.3,4.6-7.6,6s-7.3,2.1-12,2.1C98.2,252.5,95.4,252.2,92.8,251.7z"/>
		<path class="st2" d="M135.4,191.3h8.5v60.6h-8.5V191.3z M139.8,220.3h19.4c1.8,0,3.4-0.4,4.8-1.3c1.4-0.9,2.5-2.1,3.2-3.7
			c0.8-1.6,1.1-3.4,1.1-5.5c0-2.1-0.4-3.9-1.1-5.5c-0.8-1.6-1.8-2.8-3.2-3.7c-1.4-0.9-3-1.3-4.8-1.3h-19.4v-8.1h19.1
			c3.6,0,6.8,0.8,9.5,2.3c2.8,1.5,4.9,3.7,6.4,6.5c1.5,2.8,2.3,6.1,2.3,9.8s-0.8,6.9-2.3,9.7c-1.5,2.8-3.6,5-6.4,6.5
			c-2.8,1.5-5.9,2.3-9.5,2.3h-19.1V220.3z"/>
		<path class="st2" d="M197.1,251.9h-8.5v-60.6h8.5V251.9z"/>
		<path class="st2" d="M212.1,191.2h8.5v60.6h-8.5V191.2z M215.8,218.2h20.7c1.6,0,3-0.4,4.3-1.2c1.3-0.8,2.2-1.9,2.9-3.3
			c0.7-1.4,1-3.1,1-4.9c0-1.9-0.3-3.5-1-4.9c-0.7-1.4-1.6-2.5-2.9-3.3c-1.2-0.8-2.7-1.2-4.3-1.2h-20.7v-8.1h20.3
			c3.5,0,6.6,0.7,9.2,2.2c2.7,1.4,4.7,3.5,6.2,6.1c1.5,2.7,2.2,5.7,2.2,9.2c0,3.5-0.7,6.5-2.2,9.2c-1.5,2.7-3.5,4.7-6.2,6.1
			c-2.7,1.4-5.7,2.2-9.2,2.2h-20.3V218.2z M232.3,224.4l8.5-1.9l15.5,29.4h-10.1L232.3,224.4z"/>
		<path class="st2" d="M276.2,251.9h-8.5v-60.6h8.5V251.9z"/>
		<path class="st2" d="M282.8,191.3h42.8v8.1h-42.8V191.3z M300,196.2h8.5v55.6H300V196.2z"/>
		<path class="st2" d="M341.2,249.9c-3.2-1.8-5.6-4.3-7.3-7.7c-1.7-3.4-2.5-7.4-2.5-12.2v-38.7h8.5v39c0,4.4,1.1,7.8,3.3,10.3
			c2.2,2.4,5.4,3.6,9.4,3.6c4.1,0,7.2-1.2,9.5-3.6c2.2-2.4,3.4-5.8,3.4-10.3v-39h8.5V230c0,4.8-0.8,8.8-2.5,12.2s-4.1,5.9-7.3,7.7
			c-3.2,1.8-7,2.6-11.5,2.6C348.2,252.5,344.4,251.6,341.2,249.9z"/>
		<path class="st2" d="M404.7,191.3h7.3l22.3,60.6h-9.2L408.3,203l-16.8,48.9h-9.2L404.7,191.3z M392.6,230.5h31.9v8.1h-31.9V230.5z
			"/>
		<path class="st2" d="M443.4,191.3h8.5v60.6h-8.5V191.3z M447.7,243.8h34.7v8.1h-34.7V243.8z"/>
		<path class="st2" d="M500.8,251.9h-8.5v-60.6h8.5V251.9z"/>
		<path class="st2" d="M525.8,251.7c-2.6-0.6-5-1.4-7.3-2.5c-2.3-1.1-4.4-2.5-6.4-4.2l5.3-6.5c2.3,2,4.8,3.5,7.6,4.5
			c2.8,1,5.8,1.5,9,1.5c4.4,0,7.8-0.8,10.2-2.4c2.4-1.6,3.6-3.9,3.6-6.9v0c0-2.1-0.5-3.8-1.6-5s-2.5-2.2-4.3-2.8s-4-1.1-6.7-1.6
			c-0.1,0-0.2,0-0.3,0s-0.2,0-0.3,0l-0.6-0.1c-4.1-0.7-7.4-1.5-9.9-2.4c-2.5-0.9-4.7-2.5-6.5-4.8s-2.7-5.6-2.7-9.9v0
			c0-3.8,0.8-7,2.5-9.6c1.7-2.7,4.1-4.7,7.4-6.1c3.2-1.4,7.1-2.1,11.6-2.1c2.2,0,4.3,0.2,6.4,0.7c2.1,0.5,4.2,1.2,6.2,2.1
			c2,0.9,4,2.1,6,3.5l-4.8,6.8c-2.3-1.7-4.6-3-6.9-3.8c-2.3-0.8-4.6-1.3-6.9-1.3c-4.1,0-7.4,0.8-9.6,2.5c-2.3,1.7-3.4,4-3.4,7v0
			c0,2.1,0.6,3.7,1.8,4.9s2.7,2.1,4.4,2.6c1.8,0.6,4.2,1.2,7.4,1.8c0.1,0,0.2,0,0.3,0.1s0.2,0,0.3,0.1c0.1,0,0.3,0.1,0.5,0.1
			c0.2,0,0.3,0.1,0.5,0.1c3.7,0.8,6.7,1.6,9.2,2.7c2.5,1,4.5,2.7,6.2,5c1.7,2.3,2.5,5.4,2.5,9.4v0.1c0,3.7-0.9,6.9-2.6,9.5
			s-4.3,4.6-7.6,6c-3.3,1.4-7.3,2.1-12,2.1C531.1,252.5,528.4,252.2,525.8,251.7z"/>
		<path class="st2" d="M560.1,191.3h42.8v8.1h-42.8V191.3z M577.2,196.2h8.5v55.6h-8.5V196.2z"/>
		<path class="st2" d="M641.2,249.7c-3.2-1.9-5.6-4.5-7.4-7.9c-1.8-3.4-2.6-7.4-2.6-11.9v-16.6c0-4.5,0.9-8.5,2.6-11.9
			c1.8-3.4,4.2-6.1,7.4-7.9s6.9-2.8,11.1-2.8c3.5,0,6.7,0.7,9.6,2.2c2.9,1.5,5.4,3.6,7.3,6.3c2,2.7,3.3,5.9,4,9.5h-8.7
			c-0.5-1.9-1.4-3.6-2.6-5.1c-1.2-1.5-2.7-2.6-4.4-3.4s-3.4-1.2-5.2-1.2c-2.5,0-4.6,0.6-6.5,1.8s-3.3,2.9-4.3,5
			c-1,2.2-1.5,4.7-1.5,7.5v16.6c0,2.8,0.5,5.3,1.5,7.5c1,2.2,2.5,3.8,4.3,5s4,1.8,6.5,1.8c1.8,0,3.5-0.4,5.2-1.1s3.1-1.9,4.3-3.3
			c1.2-1.5,2.1-3.2,2.6-5.3h8.7c-0.7,3.6-2,6.7-4,9.5c-2,2.7-4.4,4.8-7.3,6.3c-2.9,1.5-6.1,2.2-9.5,2.2
			C648,252.5,644.3,251.6,641.2,249.7z"/>
		<path class="st2" d="M685.2,191.3h8.5v60.6h-8.5V191.3z M689.3,191.3h34.8v8.1h-34.8V191.3z M689.3,217.7h30.2v8.1h-30.2V217.7z
			 M689.3,243.8h34.8v8.1h-34.8V243.8z"/>
		<path class="st2" d="M736.2,191.3h7.7l29.6,46.8l-1,1.1v-47.9h8.4v60.5h-7.8l-29.5-46.1l1-1.1v47.2h-8.4V191.3z"/>
		<path class="st2" d="M787.6,191.3h42.8v8.1h-42.8V191.3z M804.7,196.2h8.5v55.6h-8.5V196.2z"/>
		<path class="st2" d="M837,191.2h8.5v60.6H837V191.2z M840.7,218.2h20.7c1.6,0,3-0.4,4.3-1.2c1.3-0.8,2.2-1.9,2.9-3.3s1-3.1,1-4.9
			c0-1.9-0.3-3.5-1-4.9s-1.6-2.5-2.9-3.3c-1.2-0.8-2.7-1.2-4.3-1.2h-20.7v-8.1h20.3c3.5,0,6.6,0.7,9.2,2.2s4.7,3.5,6.2,6.1
			c1.5,2.7,2.2,5.7,2.2,9.2c0,3.5-0.7,6.5-2.2,9.2c-1.5,2.7-3.5,4.7-6.2,6.1c-2.7,1.4-5.7,2.2-9.2,2.2h-20.3V218.2z M857.2,224.4
			l8.5-1.9l15.5,29.4h-10.1L857.2,224.4z"/>
		<path class="st2" d="M892.6,191.3h8.5v60.6h-8.5V191.3z M896.8,191.3h34.8v8.1h-34.8V191.3z M896.8,217.7H927v8.1h-30.2V217.7z
			 M896.8,243.8h34.8v8.1h-34.8V243.8z"/>
	</g>
</g>
</svg>
